# Blender 4.1.1
# www.blender.org
mtllib 303.mtl
o Text
v 0.645035 0.100000 0.336591
v 0.234558 0.100000 0.336591
v 0.234558 0.100000 0.301407
v 0.601251 0.100000 0.301407
v 0.605942 0.100000 0.296716
v 0.605942 0.100000 0.057858
v 0.601251 0.100000 0.053167
v 0.234558 0.100000 0.053167
v 0.234558 0.100000 0.017983
v 0.600860 0.100000 0.017983
v 0.605942 0.100000 0.013292
v 0.605942 0.100000 -0.225567
v 0.601251 0.100000 -0.230258
v 0.234558 0.100000 -0.230258
v 0.234558 0.100000 -0.265442
v 0.645035 0.100000 -0.265442
v 0.156372 0.100000 0.336591
v -0.254105 0.100000 0.336591
v -0.254105 0.100000 -0.265442
v 0.156372 0.100000 -0.265442
v 0.112588 0.100000 -0.230258
v -0.210712 0.100000 -0.230258
v -0.215403 0.100000 -0.225567
v -0.215012 0.100000 0.297107
v -0.209930 0.100000 0.301798
v 0.112588 0.100000 0.301798
v 0.117279 0.100000 0.296716
v 0.116888 0.100000 -0.225567
v -0.332291 0.100000 0.336591
v -0.742768 0.100000 0.336591
v -0.742768 0.100000 0.301407
v -0.376075 0.100000 0.301407
v -0.371384 0.100000 0.296716
v -0.371384 0.100000 0.057858
v -0.376075 0.100000 0.053167
v -0.742768 0.100000 0.053167
v -0.742768 0.100000 0.017983
v -0.376466 0.100000 0.017983
v -0.371384 0.100000 0.013292
v -0.371384 0.100000 -0.225567
v -0.376075 0.100000 -0.230258
v -0.742768 0.100000 -0.230258
v -0.742768 0.100000 -0.265442
v -0.332291 0.100000 -0.265442
v 0.645035 -0.100000 0.336591
v 0.234558 -0.100000 0.336591
v 0.234558 -0.100000 0.301407
v 0.601251 -0.100000 0.301407
v 0.605942 -0.100000 0.296716
v 0.605942 -0.100000 0.057858
v 0.601251 -0.100000 0.053167
v 0.234558 -0.100000 0.053167
v 0.234558 -0.100000 0.017983
v 0.600860 -0.100000 0.017983
v 0.605942 -0.100000 0.013292
v 0.605942 -0.100000 -0.225567
v 0.601251 -0.100000 -0.230258
v 0.234558 -0.100000 -0.230258
v 0.234558 -0.100000 -0.265442
v 0.645035 -0.100000 -0.265442
v 0.156372 -0.100000 0.336591
v -0.254105 -0.100000 0.336591
v -0.254105 -0.100000 -0.265442
v 0.156372 -0.100000 -0.265442
v 0.112588 -0.100000 -0.230258
v -0.210712 -0.100000 -0.230258
v -0.215403 -0.100000 -0.225567
v -0.215012 -0.100000 0.297107
v -0.209930 -0.100000 0.301798
v 0.112588 -0.100000 0.301798
v 0.117279 -0.100000 0.296716
v 0.116888 -0.100000 -0.225567
v -0.332291 -0.100000 0.336591
v -0.742768 -0.100000 0.336591
v -0.742768 -0.100000 0.301407
v -0.376075 -0.100000 0.301407
v -0.371384 -0.100000 0.296716
v -0.371384 -0.100000 0.057858
v -0.376075 -0.100000 0.053167
v -0.742768 -0.100000 0.053167
v -0.742768 -0.100000 0.017983
v -0.376466 -0.100000 0.017983
v -0.371384 -0.100000 0.013292
v -0.371384 -0.100000 -0.225567
v -0.376075 -0.100000 -0.230258
v -0.742768 -0.100000 -0.230258
v -0.742768 -0.100000 -0.265442
v -0.332291 -0.100000 -0.265442
v -0.332291 -0.100000 0.336591
v -0.332291 0.100000 0.336591
v -0.742768 -0.100000 0.336591
v -0.742768 0.100000 0.336591
v -0.742768 -0.100000 0.301407
v -0.742768 0.100000 0.301407
v -0.376075 -0.100000 0.301407
v -0.376075 0.100000 0.301407
v -0.371384 -0.100000 0.296716
v -0.371384 0.100000 0.296716
v -0.371384 -0.100000 0.057858
v -0.371384 0.100000 0.057858
v -0.376075 -0.100000 0.053167
v -0.376075 0.100000 0.053167
v -0.742768 -0.100000 0.053167
v -0.742768 0.100000 0.053167
v -0.742768 -0.100000 0.017983
v -0.742768 0.100000 0.017983
v -0.376466 -0.100000 0.017983
v -0.376466 0.100000 0.017983
v -0.371384 -0.100000 0.013292
v -0.371384 0.100000 0.013292
v -0.371384 -0.100000 -0.225567
v -0.371384 0.100000 -0.225567
v -0.376075 -0.100000 -0.230258
v -0.376075 0.100000 -0.230258
v -0.742768 -0.100000 -0.230258
v -0.742768 0.100000 -0.230258
v -0.742768 -0.100000 -0.265442
v -0.742768 0.100000 -0.265442
v -0.332291 -0.100000 -0.265442
v -0.332291 0.100000 -0.265442
v 0.156372 -0.100000 0.336591
v 0.156372 0.100000 0.336591
v -0.254105 -0.100000 0.336591
v -0.254105 0.100000 0.336591
v -0.254105 -0.100000 -0.265442
v -0.254105 0.100000 -0.265442
v 0.156372 -0.100000 -0.265442
v 0.156372 0.100000 -0.265442
v 0.112588 -0.100000 -0.230258
v 0.112588 0.100000 -0.230258
v -0.210712 -0.100000 -0.230258
v -0.210712 0.100000 -0.230258
v -0.215403 -0.100000 -0.225567
v -0.215403 0.100000 -0.225567
v -0.215012 -0.100000 0.297107
v -0.215012 0.100000 0.297107
v -0.209930 -0.100000 0.301798
v -0.209930 0.100000 0.301798
v 0.112588 -0.100000 0.301798
v 0.112588 0.100000 0.301798
v 0.117279 -0.100000 0.296716
v 0.117279 0.100000 0.296716
v 0.116888 -0.100000 -0.225567
v 0.116888 0.100000 -0.225567
v 0.645035 -0.100000 0.336591
v 0.645035 0.100000 0.336591
v 0.234558 -0.100000 0.336591
v 0.234558 0.100000 0.336591
v 0.234558 -0.100000 0.301407
v 0.234558 0.100000 0.301407
v 0.601251 -0.100000 0.301407
v 0.601251 0.100000 0.301407
v 0.605942 -0.100000 0.296716
v 0.605942 0.100000 0.296716
v 0.605942 -0.100000 0.057858
v 0.605942 0.100000 0.057858
v 0.601251 -0.100000 0.053167
v 0.601251 0.100000 0.053167
v 0.234558 -0.100000 0.053167
v 0.234558 0.100000 0.053167
v 0.234558 -0.100000 0.017983
v 0.234558 0.100000 0.017983
v 0.600860 -0.100000 0.017983
v 0.600860 0.100000 0.017983
v 0.605942 -0.100000 0.013292
v 0.605942 0.100000 0.013292
v 0.605942 -0.100000 -0.225567
v 0.605942 0.100000 -0.225567
v 0.601251 -0.100000 -0.230258
v 0.601251 0.100000 -0.230258
v 0.234558 -0.100000 -0.230258
v 0.234558 0.100000 -0.230258
v 0.234558 -0.100000 -0.265442
v 0.234558 0.100000 -0.265442
v 0.645035 -0.100000 -0.265442
v 0.645035 0.100000 -0.265442
vn -0.0000 1.0000 -0.0000
vn -0.0000 -1.0000 -0.0000
vn 0.7071 -0.0000 0.7071
vn -0.7071 -0.0000 0.7071
vn -0.7071 -0.0000 -0.7071
vn -0.3827 -0.0000 -0.9239
vn -0.9239 -0.0000 -0.3827
vn -0.9239 -0.0000 0.3827
vn -0.3827 -0.0000 0.9239
vn -0.3641 -0.0000 -0.9313
vn -0.9160 -0.0000 -0.4011
vn 0.7071 -0.0000 -0.7071
vn -0.4027 -0.0000 0.9153
vn 0.3827 -0.0000 0.9239
vn 0.9240 -0.0000 0.3823
vn 0.9159 -0.0000 -0.4014
vn 0.3641 -0.0000 -0.9313
vn -0.4011 -0.0000 -0.9160
vn -0.9315 -0.0000 -0.3638
vn -0.9318 -0.0000 0.3629
vt 0.866667 0.000000
vt 1.000000 0.000000
vt 0.933333 0.000000
vt 0.800000 0.000000
vt 0.733333 0.000000
vt 0.000000 0.000000
vt 0.666667 0.000000
vt 0.600000 0.000000
vt 0.466667 0.000000
vt 0.533333 0.000000
vt 0.400000 0.000000
vt 0.333333 0.000000
vt 0.266667 0.000000
vt 0.200000 0.000000
vt 0.066667 0.000000
vt 0.133333 0.000000
vt 0.090909 0.000000
vt 0.545455 0.000000
vt 0.181818 0.000000
vt 0.454545 0.000000
vt 0.272727 0.000000
vt 0.363636 0.000000
vt 0.636364 0.000000
vt 0.909091 0.000000
vt 0.818182 0.000000
vt 0.727273 0.000000
vt 0.000000 1.000000
vt 0.062500 1.000000
vt 0.062500 0.000000
vt 0.125000 1.000000
vt 0.125000 0.000000
vt 0.187500 1.000000
vt 0.187500 0.000000
vt 0.250000 1.000000
vt 0.250000 0.000000
vt 0.312500 1.000000
vt 0.312500 0.000000
vt 0.375000 1.000000
vt 0.375000 0.000000
vt 0.437500 1.000000
vt 0.437500 0.000000
vt 0.500000 1.000000
vt 0.500000 0.000000
vt 0.562500 1.000000
vt 0.562500 0.000000
vt 0.625000 1.000000
vt 0.625000 0.000000
vt 0.687500 1.000000
vt 0.687500 0.000000
vt 0.750000 1.000000
vt 0.750000 0.000000
vt 0.812500 1.000000
vt 0.812500 0.000000
vt 0.875000 1.000000
vt 0.875000 0.000000
vt 0.937500 1.000000
vt 0.937500 0.000000
vt 1.000000 1.000000
s 0
f 14/1/1 16/2/1 15/3/1
f 14/1/1 13/4/1 16/2/1
f 13/4/1 12/5/1 16/2/1
f 12/5/1 1/6/1 16/2/1
f 11/7/1 1/6/1 12/5/1
f 10/8/1 1/6/1 11/7/1
f 8/9/1 10/8/1 9/10/1
f 8/9/1 7/11/1 10/8/1
f 7/11/1 6/12/1 10/8/1
f 6/12/1 1/6/1 10/8/1
f 5/13/1 1/6/1 6/12/1
f 4/14/1 1/6/1 5/13/1
f 2/15/1 4/14/1 3/16/1
f 2/15/1 1/6/1 4/14/1
f 18/17/1 23/18/1 19/19/1
f 23/18/1 22/20/1 19/19/1
f 22/20/1 20/21/1 19/19/1
f 22/20/1 21/22/1 20/21/1
f 21/22/1 28/2/1 20/21/1
f 28/2/1 17/6/1 20/21/1
f 18/17/1 24/23/1 23/18/1
f 27/24/1 17/6/1 28/2/1
f 26/25/1 17/6/1 27/24/1
f 18/17/1 25/26/1 24/23/1
f 18/17/1 26/25/1 25/26/1
f 18/17/1 17/6/1 26/25/1
f 42/1/1 44/2/1 43/3/1
f 42/1/1 41/4/1 44/2/1
f 41/4/1 40/5/1 44/2/1
f 40/5/1 29/6/1 44/2/1
f 39/7/1 29/6/1 40/5/1
f 38/8/1 29/6/1 39/7/1
f 36/9/1 38/8/1 37/10/1
f 36/9/1 35/11/1 38/8/1
f 35/11/1 34/12/1 38/8/1
f 34/12/1 29/6/1 38/8/1
f 33/13/1 29/6/1 34/12/1
f 32/14/1 29/6/1 33/13/1
f 30/15/1 32/14/1 31/16/1
f 30/15/1 29/6/1 32/14/1
f 58/1/2 59/3/2 60/2/2
f 58/1/2 60/2/2 57/4/2
f 57/4/2 60/2/2 56/5/2
f 56/5/2 60/2/2 45/6/2
f 55/7/2 56/5/2 45/6/2
f 54/8/2 55/7/2 45/6/2
f 52/9/2 53/10/2 54/8/2
f 52/9/2 54/8/2 51/11/2
f 51/11/2 54/8/2 50/12/2
f 50/12/2 54/8/2 45/6/2
f 49/13/2 50/12/2 45/6/2
f 48/14/2 49/13/2 45/6/2
f 46/15/2 47/16/2 48/14/2
f 46/15/2 48/14/2 45/6/2
f 62/17/2 63/19/2 67/18/2
f 67/18/2 63/19/2 66/20/2
f 66/20/2 63/19/2 64/21/2
f 66/20/2 64/21/2 65/22/2
f 65/22/2 64/21/2 72/2/2
f 72/2/2 64/21/2 61/6/2
f 62/17/2 67/18/2 68/23/2
f 71/24/2 72/2/2 61/6/2
f 70/25/2 71/24/2 61/6/2
f 62/17/2 68/23/2 69/26/2
f 62/17/2 69/26/2 70/25/2
f 62/17/2 70/25/2 61/6/2
f 86/1/2 87/3/2 88/2/2
f 86/1/2 88/2/2 85/4/2
f 85/4/2 88/2/2 84/5/2
f 84/5/2 88/2/2 73/6/2
f 83/7/2 84/5/2 73/6/2
f 82/8/2 83/7/2 73/6/2
f 80/9/2 81/10/2 82/8/2
f 80/9/2 82/8/2 79/11/2
f 79/11/2 82/8/2 78/12/2
f 78/12/2 82/8/2 73/6/2
f 77/13/2 78/12/2 73/6/2
f 76/14/2 77/13/2 73/6/2
f 74/15/2 75/16/2 76/14/2
f 74/15/2 76/14/2 73/6/2
s 1
f 90/27/3 92/28/4 91/29/4 89/6/3
f 92/28/4 94/30/5 93/31/5 91/29/4
f 94/30/5 96/32/6 95/33/6 93/31/5
f 96/32/6 98/34/7 97/35/7 95/33/6
f 98/34/7 100/36/8 99/37/8 97/35/7
f 100/36/8 102/38/9 101/39/9 99/37/8
f 102/38/9 104/40/4 103/41/4 101/39/9
f 104/40/4 106/42/5 105/43/5 103/41/4
f 106/42/5 108/44/10 107/45/10 105/43/5
f 108/44/10 110/46/11 109/47/11 107/45/10
f 110/46/11 112/48/8 111/49/8 109/47/11
f 112/48/8 114/50/9 113/51/9 111/49/8
f 114/50/9 116/52/4 115/53/4 113/51/9
f 116/52/4 118/54/5 117/55/5 115/53/4
f 118/54/5 120/56/12 119/57/12 117/55/5
f 120/56/12 90/58/3 89/2/3 119/57/12
f 122/27/3 124/34/4 123/35/4 121/6/3
f 124/34/4 126/42/5 125/43/5 123/35/4
f 126/42/5 128/50/12 127/51/12 125/43/5
f 128/50/12 122/58/3 121/2/3 127/51/12
f 130/27/13 132/30/14 131/31/14 129/6/13
f 132/30/14 134/34/15 133/35/15 131/31/14
f 134/34/15 136/38/16 135/39/16 133/35/15
f 136/38/16 138/42/17 137/43/17 135/39/16
f 138/42/17 140/46/18 139/47/18 137/43/17
f 140/46/18 142/50/19 141/51/19 139/47/18
f 142/50/19 144/54/20 143/55/20 141/51/19
f 144/54/20 130/58/13 129/2/13 143/55/20
f 146/27/3 148/28/4 147/29/4 145/6/3
f 148/28/4 150/30/5 149/31/5 147/29/4
f 150/30/5 152/32/6 151/33/6 149/31/5
f 152/32/6 154/34/7 153/35/7 151/33/6
f 154/34/7 156/36/8 155/37/8 153/35/7
f 156/36/8 158/38/9 157/39/9 155/37/8
f 158/38/9 160/40/4 159/41/4 157/39/9
f 160/40/4 162/42/5 161/43/5 159/41/4
f 162/42/5 164/44/10 163/45/10 161/43/5
f 164/44/10 166/46/11 165/47/11 163/45/10
f 166/46/11 168/48/8 167/49/8 165/47/11
f 168/48/8 170/50/9 169/51/9 167/49/8
f 170/50/9 172/52/4 171/53/4 169/51/9
f 172/52/4 174/54/5 173/55/5 171/53/4
f 174/54/5 176/56/12 175/57/12 173/55/5
f 176/56/12 146/58/3 145/2/3 175/57/12
