# Blender 4.1.1
# www.blender.org
mtllib eden.mtl
o Text
v 1.377990 0.180000 -0.541201
v 1.377990 0.180000 0.655928
v 1.257416 0.180000 0.655928
v 1.257416 0.180000 -0.420627
v 0.898564 0.180000 -0.420627
v 0.898564 0.180000 0.655928
v 0.779426 0.180000 0.655928
v 0.779426 0.180000 -0.541201
v 0.179426 0.180000 0.297076
v 0.658852 0.180000 0.297076
v 0.658852 0.180000 0.416215
v 0.060287 0.180000 0.416215
v 0.060287 0.180000 -0.541201
v 0.658852 0.180000 -0.541201
v 0.658852 0.180000 -0.420627
v 0.179426 0.180000 -0.420627
v 0.060287 0.180000 0.535354
v 0.658852 0.180000 0.535354
v 0.658852 0.180000 0.655928
v 0.060287 0.180000 0.655928
v -0.060287 0.180000 -0.541201
v -0.060287 0.180000 0.655928
v -0.419139 0.180000 0.655928
v -0.419139 0.180000 0.535354
v -0.180861 0.180000 0.535354
v -0.180861 0.180000 -0.420627
v -0.539713 0.180000 -0.420627
v -0.539713 0.180000 0.655928
v -0.658852 0.180000 0.655928
v -0.658852 0.180000 -0.541201
v -1.258852 0.180000 0.297076
v -0.779426 0.180000 0.297076
v -0.779426 0.180000 0.416215
v -1.377990 0.180000 0.416215
v -1.377990 0.180000 -0.541201
v -0.779426 0.180000 -0.541201
v -0.779426 0.180000 -0.420627
v -1.258852 0.180000 -0.420627
v -1.377990 0.180000 0.535354
v -0.779426 0.180000 0.535354
v -0.779426 0.180000 0.655928
v -1.377990 0.180000 0.655928
v 1.377990 -0.180000 -0.541201
v 1.377990 -0.180000 0.655928
v 1.257416 -0.180000 0.655928
v 1.257416 -0.180000 -0.420627
v 0.898564 -0.180000 -0.420627
v 0.898564 -0.180000 0.655928
v 0.779426 -0.180000 0.655928
v 0.779426 -0.180000 -0.541201
v 0.179426 -0.180000 0.297076
v 0.658852 -0.180000 0.297076
v 0.658852 -0.180000 0.416215
v 0.060287 -0.180000 0.416215
v 0.060287 -0.180000 -0.541201
v 0.658852 -0.180000 -0.541201
v 0.658852 -0.180000 -0.420627
v 0.179426 -0.180000 -0.420627
v 0.060287 -0.180000 0.535354
v 0.658852 -0.180000 0.535354
v 0.658852 -0.180000 0.655928
v 0.060287 -0.180000 0.655928
v -0.060287 -0.180000 -0.541201
v -0.060287 -0.180000 0.655928
v -0.419139 -0.180000 0.655928
v -0.419139 -0.180000 0.535354
v -0.180861 -0.180000 0.535354
v -0.180861 -0.180000 -0.420627
v -0.539713 -0.180000 -0.420627
v -0.539713 -0.180000 0.655928
v -0.658852 -0.180000 0.655928
v -0.658852 -0.180000 -0.541201
v -1.258852 -0.180000 0.297076
v -0.779426 -0.180000 0.297076
v -0.779426 -0.180000 0.416215
v -1.377990 -0.180000 0.416215
v -1.377990 -0.180000 -0.541201
v -0.779426 -0.180000 -0.541201
v -0.779426 -0.180000 -0.420627
v -1.258852 -0.180000 -0.420627
v -1.377990 -0.180000 0.535354
v -0.779426 -0.180000 0.535354
v -0.779426 -0.180000 0.655928
v -1.377990 -0.180000 0.655928
v -1.377990 -0.180000 0.535354
v -1.377990 0.180000 0.535354
v -0.779426 -0.180000 0.535354
v -0.779426 0.180000 0.535354
v -0.779426 -0.180000 0.655928
v -0.779426 0.180000 0.655928
v -1.377990 -0.180000 0.655928
v -1.377990 0.180000 0.655928
v -1.258852 -0.180000 0.297076
v -1.258852 0.180000 0.297076
v -0.779426 -0.180000 0.297076
v -0.779426 0.180000 0.297076
v -0.779426 -0.180000 0.416215
v -0.779426 0.180000 0.416215
v -1.377990 -0.180000 0.416215
v -1.377990 0.180000 0.416215
v -1.377990 -0.180000 -0.541201
v -1.377990 0.180000 -0.541201
v -0.779426 -0.180000 -0.541201
v -0.779426 0.180000 -0.541201
v -0.779426 -0.180000 -0.420627
v -0.779426 0.180000 -0.420627
v -1.258852 -0.180000 -0.420627
v -1.258852 0.180000 -0.420627
v -0.060287 -0.180000 -0.541201
v -0.060287 0.180000 -0.541201
v -0.060287 -0.180000 0.655928
v -0.060287 0.180000 0.655928
v -0.419139 -0.180000 0.655928
v -0.419139 0.180000 0.655928
v -0.419139 -0.180000 0.535354
v -0.419139 0.180000 0.535354
v -0.180861 -0.180000 0.535354
v -0.180861 0.180000 0.535354
v -0.180861 -0.180000 -0.420627
v -0.180861 0.180000 -0.420627
v -0.539713 -0.180000 -0.420627
v -0.539713 0.180000 -0.420627
v -0.539713 -0.180000 0.655928
v -0.539713 0.180000 0.655928
v -0.658852 -0.180000 0.655928
v -0.658852 0.180000 0.655928
v -0.658852 -0.180000 -0.541201
v -0.658852 0.180000 -0.541201
v 0.060287 -0.180000 0.535354
v 0.060287 0.180000 0.535354
v 0.658852 -0.180000 0.535354
v 0.658852 0.180000 0.535354
v 0.658852 -0.180000 0.655928
v 0.658852 0.180000 0.655928
v 0.060287 -0.180000 0.655928
v 0.060287 0.180000 0.655928
v 0.179426 -0.180000 0.297076
v 0.179426 0.180000 0.297076
v 0.658852 -0.180000 0.297076
v 0.658852 0.180000 0.297076
v 0.658852 -0.180000 0.416215
v 0.658852 0.180000 0.416215
v 0.060287 -0.180000 0.416215
v 0.060287 0.180000 0.416215
v 0.060287 -0.180000 -0.541201
v 0.060287 0.180000 -0.541201
v 0.658852 -0.180000 -0.541201
v 0.658852 0.180000 -0.541201
v 0.658852 -0.180000 -0.420627
v 0.658852 0.180000 -0.420627
v 0.179426 -0.180000 -0.420627
v 0.179426 0.180000 -0.420627
v 1.377990 -0.180000 -0.541201
v 1.377990 0.180000 -0.541201
v 1.377990 -0.180000 0.655928
v 1.377990 0.180000 0.655928
v 1.257416 -0.180000 0.655928
v 1.257416 0.180000 0.655928
v 1.257416 -0.180000 -0.420627
v 1.257416 0.180000 -0.420627
v 0.898564 -0.180000 -0.420627
v 0.898564 0.180000 -0.420627
v 0.898564 -0.180000 0.655928
v 0.898564 0.180000 0.655928
v 0.779426 -0.180000 0.655928
v 0.779426 0.180000 0.655928
v 0.779426 -0.180000 -0.541201
v 0.779426 0.180000 -0.541201
vn -0.0000 1.0000 -0.0000
vn -0.0000 -1.0000 -0.0000
vn -0.7071 -0.0000 -0.7071
vn 0.7071 -0.0000 -0.7071
vn 0.7071 -0.0000 0.7071
vn -0.7071 -0.0000 0.7071
vt 0.857143 0.000000
vt 0.571429 0.000000
vt 1.000000 0.000000
vt 0.000000 0.000000
vt 0.428571 0.000000
vt 0.142857 0.000000
vt 0.714286 0.000000
vt 0.285714 0.000000
vt 0.818182 0.000000
vt 0.727273 0.000000
vt 0.909091 0.000000
vt 0.272727 0.000000
vt 0.636364 0.000000
vt 0.363636 0.000000
vt 0.454545 0.000000
vt 0.545455 0.000000
vt 0.090909 0.000000
vt 0.181818 0.000000
vt 0.888889 0.000000
vt 0.666667 0.000000
vt 0.555556 0.000000
vt 0.111111 0.000000
vt 0.777778 0.000000
vt 0.444444 0.000000
vt 0.222222 0.000000
vt 0.333333 0.000000
vt 0.000000 1.000000
vt 0.250000 1.000000
vt 0.250000 0.000000
vt 0.500000 1.000000
vt 0.500000 0.000000
vt 0.750000 1.000000
vt 0.750000 0.000000
vt 1.000000 1.000000
vt 0.125000 1.000000
vt 0.125000 0.000000
vt 0.375000 1.000000
vt 0.375000 0.000000
vt 0.625000 1.000000
vt 0.625000 0.000000
vt 0.875000 1.000000
vt 0.875000 0.000000
vt 0.100000 1.000000
vt 0.100000 0.000000
vt 0.200000 1.000000
vt 0.200000 0.000000
vt 0.300000 1.000000
vt 0.300000 0.000000
vt 0.400000 1.000000
vt 0.400000 0.000000
vt 0.600000 1.000000
vt 0.600000 0.000000
vt 0.700000 1.000000
vt 0.700000 0.000000
vt 0.800000 1.000000
vt 0.800000 0.000000
vt 0.900000 1.000000
vt 0.900000 0.000000
s 0
f 7/1/1 5/2/1 8/3/1
f 5/2/1 1/4/1 8/3/1
f 5/2/1 4/5/1 1/4/1
f 4/5/1 2/6/1 1/4/1
f 7/1/1 6/7/1 5/2/1
f 3/8/1 2/6/1 4/5/1
f 20/3/1 18/9/1 17/10/1
f 20/3/1 19/11/1 18/9/1
f 12/12/1 16/13/1 13/14/1
f 16/13/1 14/15/1 13/14/1
f 16/13/1 15/16/1 14/15/1
f 12/12/1 9/4/1 16/13/1
f 12/12/1 10/17/1 9/4/1
f 12/12/1 11/18/1 10/17/1
f 29/19/1 27/20/1 30/3/1
f 27/20/1 21/4/1 30/3/1
f 27/20/1 26/21/1 21/4/1
f 26/21/1 22/22/1 21/4/1
f 29/19/1 28/23/1 27/20/1
f 25/24/1 22/22/1 26/21/1
f 23/25/1 25/24/1 24/26/1
f 23/25/1 22/22/1 25/24/1
f 42/3/1 40/9/1 39/10/1
f 42/3/1 41/11/1 40/9/1
f 34/12/1 38/13/1 35/14/1
f 38/13/1 36/15/1 35/14/1
f 38/13/1 37/16/1 36/15/1
f 34/12/1 31/4/1 38/13/1
f 34/12/1 32/17/1 31/4/1
f 34/12/1 33/18/1 32/17/1
f 49/1/2 50/3/2 47/2/2
f 47/2/2 50/3/2 43/4/2
f 47/2/2 43/4/2 46/5/2
f 46/5/2 43/4/2 44/6/2
f 49/1/2 47/2/2 48/7/2
f 45/8/2 46/5/2 44/6/2
f 62/3/2 59/10/2 60/9/2
f 62/3/2 60/9/2 61/11/2
f 54/12/2 55/14/2 58/13/2
f 58/13/2 55/14/2 56/15/2
f 58/13/2 56/15/2 57/16/2
f 54/12/2 58/13/2 51/4/2
f 54/12/2 51/4/2 52/17/2
f 54/12/2 52/17/2 53/18/2
f 71/19/2 72/3/2 69/20/2
f 69/20/2 72/3/2 63/4/2
f 69/20/2 63/4/2 68/21/2
f 68/21/2 63/4/2 64/22/2
f 71/19/2 69/20/2 70/23/2
f 67/24/2 68/21/2 64/22/2
f 65/25/2 66/26/2 67/24/2
f 65/25/2 67/24/2 64/22/2
f 84/3/2 81/10/2 82/9/2
f 84/3/2 82/9/2 83/11/2
f 76/12/2 77/14/2 80/13/2
f 80/13/2 77/14/2 78/15/2
f 80/13/2 78/15/2 79/16/2
f 76/12/2 80/13/2 73/4/2
f 76/12/2 73/4/2 74/17/2
f 76/12/2 74/17/2 75/18/2
s 1
f 86/27/3 88/28/4 87/29/4 85/4/3
f 88/28/4 90/30/5 89/31/5 87/29/4
f 90/30/5 92/32/6 91/33/6 89/31/5
f 92/32/6 86/34/3 85/3/3 91/33/6
f 94/27/4 96/35/4 95/36/4 93/4/4
f 96/35/4 98/28/5 97/29/5 95/36/4
f 98/28/5 100/37/6 99/38/6 97/29/5
f 100/37/6 102/30/3 101/31/3 99/38/6
f 102/30/3 104/39/4 103/40/4 101/31/3
f 104/39/4 106/32/5 105/33/5 103/40/4
f 106/32/5 108/41/5 107/42/5 105/33/5
f 108/41/5 94/34/4 93/3/4 107/42/5
f 110/27/4 112/43/5 111/44/5 109/4/4
f 112/43/5 114/45/6 113/46/6 111/44/5
f 114/45/6 116/47/3 115/48/3 113/46/6
f 116/47/3 118/49/3 117/50/3 115/48/3
f 118/49/3 120/30/6 119/31/6 117/50/3
f 120/30/6 122/51/5 121/52/5 119/31/6
f 122/51/5 124/53/5 123/54/5 121/52/5
f 124/53/5 126/55/6 125/56/6 123/54/5
f 126/55/6 128/57/3 127/58/3 125/56/6
f 128/57/3 110/34/4 109/3/4 127/58/3
f 130/27/3 132/28/4 131/29/4 129/4/3
f 132/28/4 134/30/5 133/31/5 131/29/4
f 134/30/5 136/32/6 135/33/6 133/31/5
f 136/32/6 130/34/3 129/3/3 135/33/6
f 138/27/4 140/35/4 139/36/4 137/4/4
f 140/35/4 142/28/5 141/29/5 139/36/4
f 142/28/5 144/37/6 143/38/6 141/29/5
f 144/37/6 146/30/3 145/31/3 143/38/6
f 146/30/3 148/39/4 147/40/4 145/31/3
f 148/39/4 150/32/5 149/33/5 147/40/4
f 150/32/5 152/41/5 151/42/5 149/33/5
f 152/41/5 138/34/4 137/3/4 151/42/5
f 154/27/4 156/35/5 155/36/5 153/4/4
f 156/35/5 158/28/6 157/29/6 155/36/5
f 158/28/6 160/37/6 159/38/6 157/29/6
f 160/37/6 162/30/5 161/31/5 159/38/6
f 162/30/5 164/39/5 163/40/5 161/31/5
f 164/39/5 166/32/6 165/33/6 163/40/5
f 166/32/6 168/41/3 167/42/3 165/33/6
f 168/41/3 154/34/4 153/3/4 167/42/3
