# Blender 4.1.1
# www.blender.org
mtllib lil_ufo IFCUBE.mtl
o Sphere
v -1.275916 1.068499 -1.010903
v -1.188766 0.981217 -1.642215
v -0.940441 0.732893 -2.177454
v -0.568741 0.361324 -2.535106
v -1.750516 -0.077181 -1.010903
v -1.627141 -0.077181 -1.642215
v -1.275916 -0.077182 -2.177454
v -0.750391 -0.077182 -2.535106
v -1.275916 -1.222731 -1.010903
v -1.188766 -1.135582 -1.642215
v -0.940441 -0.887126 -2.177453
v -0.568741 -0.515558 -2.535106
v -0.130366 -1.697200 -1.010903
v -0.130366 -1.573957 -1.642215
v -0.130366 -1.222733 -2.177453
v -0.130366 -0.697077 -2.535106
v 1.015184 -1.222731 -1.010903
v 0.928034 -1.135582 -1.642215
v 0.679709 -0.887126 -2.177453
v 0.308009 -0.515558 -2.535106
v 1.489784 -0.077181 -1.010903
v 1.366409 -0.077181 -1.642215
v 1.015184 -0.077182 -2.177454
v 0.489659 -0.077182 -2.535106
v 1.015184 1.068499 -1.010903
v 0.928034 0.981217 -1.642215
v 0.679709 0.732893 -2.177454
v 0.308009 0.361324 -2.535106
v -0.130366 -0.077182 -2.660712
v -0.130366 1.542967 -1.010903
v -0.130366 1.419724 -1.642215
v -0.130366 1.068499 -2.177454
v -0.130366 0.542843 -2.535106
v -1.841210 1.633662 -0.861279
v -2.549828 -0.077181 -0.861278
v -1.841210 -1.787894 -0.861278
v -0.130366 -2.496643 -0.861278
v 1.580477 -1.787894 -0.861278
v 2.289097 -0.077181 -0.861278
v 1.580477 1.633662 -0.861279
v -0.130366 2.342279 -0.861279
v -2.554816 2.347270 -0.508218
v -3.559010 -0.077181 -0.508217
v -2.554816 -2.501500 -0.508217
v -0.130366 -3.505825 -0.508214
v 2.294084 -2.501500 -0.508217
v 3.298277 -0.077181 -0.508217
v 2.294084 2.347270 -0.508218
v -0.130366 3.351463 -0.508218
v -3.378672 3.171125 0.125590
v -4.724116 -0.077181 0.125591
v -3.378672 -3.325356 0.125593
v -0.130366 -4.670930 0.125593
v 3.117940 -3.325356 0.125593
v 4.463384 -0.077181 0.125591
v 3.117940 3.171125 0.125590
v -0.130366 4.516568 0.125589
v -2.552716 2.345170 0.642323
v -3.555991 -0.077181 0.642323
v -2.552716 -2.499399 0.642324
v -0.130366 -3.502806 0.642326
v 2.291984 -2.499399 0.642324
v 3.295259 -0.077181 0.642323
v 2.291984 2.345170 0.642323
v -0.130366 3.348575 0.642323
v -1.838453 1.630905 0.891697
v -2.545892 -0.077181 0.891697
v -1.838453 -1.785136 0.891698
v -0.130366 -2.492707 0.891698
v 1.577721 -1.785136 0.891698
v 2.285159 -0.077181 0.891697
v 1.577721 1.630905 0.891697
v -0.130366 2.338344 0.891697
v -1.283659 1.076113 1.113378
v -1.761278 -0.077181 1.113378
v -1.283659 -1.230344 1.113378
v -0.130366 -1.708093 1.113378
v 1.022928 -1.230344 1.113378
v 1.500546 -0.077181 1.113378
v 1.022928 1.076113 1.113378
v -0.130366 1.553863 1.113378
v -0.566510 0.359092 1.276784
v -0.747241 -0.077180 1.276784
v -0.566510 -0.513325 1.276784
v -0.130366 -0.693925 1.276784
v 0.305778 -0.513325 1.276784
v 0.486509 -0.077180 1.276784
v 0.305778 0.359092 1.276784
v -0.130366 0.539693 1.276784
vn 0.0819 -0.1979 0.9768
vn 0.3273 -0.7900 0.5184
vn 0.2269 -0.5479 0.8052
vn 0.3766 -0.9092 0.1776
vn 0.7901 -0.3272 0.5184
vn 0.5479 -0.2269 0.8052
vn 0.9092 -0.3766 0.1776
vn 0.1979 -0.0820 0.9768
vn 0.5479 0.2270 0.8052
vn 0.9092 0.3766 0.1776
vn 0.1979 0.0820 0.9768
vn 0.7900 0.3272 0.5184
vn 0.3766 0.9092 0.1775
vn 0.0820 0.1979 0.9768
vn 0.3272 0.7900 0.5185
vn 0.2269 0.5479 0.8052
vn -0.0820 0.1979 0.9768
vn -0.3272 0.7900 0.5185
vn -0.2269 0.5479 0.8052
vn -0.3766 0.9092 0.1775
vn -0.5479 0.2270 0.8052
vn -0.9092 0.3766 0.1776
vn -0.1979 0.0820 0.9768
vn -0.7900 0.3272 0.5184
vn -0.5479 -0.2269 0.8052
vn -0.9092 -0.3766 0.1776
vn -0.1979 -0.0820 0.9768
vn -0.7901 -0.3272 0.5184
vn -0.0819 -0.1979 0.9768
vn -0.3273 -0.7900 0.5184
vn -0.2269 -0.5479 0.8052
vn -0.3766 -0.9092 0.1776
vn 0.0760 0.1834 0.9801
vn -0.0760 -0.1835 0.9801
vn 0.1835 -0.0760 0.9801
vn -0.0760 0.1834 0.9801
vn 0.1835 0.0760 0.9801
vn 0.0760 -0.1835 0.9801
vn -0.1835 -0.0760 0.9801
vn -0.1835 0.0760 0.9801
vn 0.3272 0.1355 0.9352
vn -0.1355 -0.3272 0.9352
vn -0.3272 0.1355 0.9352
vn 0.1355 0.3272 0.9352
vn 0.3272 -0.1355 0.9352
vn 0.1355 -0.3272 0.9352
vn -0.3272 -0.1355 0.9352
vn -0.1355 0.3272 0.9352
vn 0.1942 -0.4688 0.8617
vn -0.4688 -0.1942 0.8617
vn -0.1942 0.4688 0.8617
vn 0.4688 0.1942 0.8617
vn -0.1942 -0.4688 0.8617
vn -0.4688 0.1942 0.8617
vn 0.1942 0.4688 0.8617
vn 0.4688 -0.1942 0.8617
vn 0.1653 0.3990 -0.9019
vn 0.3990 -0.1653 -0.9019
vn 0.1653 -0.3990 -0.9019
vn -0.3990 -0.1653 -0.9019
vn -0.1653 0.3990 -0.9019
vn 0.3990 0.1653 -0.9019
vn -0.1653 -0.3990 -0.9019
vn -0.3990 0.1653 -0.9019
vn -0.0988 -0.2385 -0.9661
vn -0.2385 0.0988 -0.9661
vn 0.0988 0.2385 -0.9661
vn 0.2385 -0.0988 -0.9661
vn 0.0988 -0.2385 -0.9661
vn -0.2385 -0.0988 -0.9661
vn -0.0988 0.2385 -0.9661
vn 0.2385 0.0988 -0.9661
vn -0.1119 0.2702 -0.9563
vn 0.2702 0.1119 -0.9563
vn -0.1119 -0.2702 -0.9563
vn -0.2702 0.1119 -0.9563
vn 0.1119 0.2702 -0.9563
vn 0.2702 -0.1119 -0.9563
vn 0.1119 -0.2702 -0.9563
vn -0.2702 -0.1119 -0.9563
vn 0.0657 -0.1587 -0.9851
vn -0.1587 -0.0657 -0.9851
vn -0.0657 0.1587 -0.9851
vn 0.1587 0.0658 -0.9851
vn -0.0657 -0.1587 -0.9851
vn -0.1587 0.0658 -0.9851
vn 0.0657 0.1587 -0.9851
vn 0.1587 -0.0657 -0.9851
vn -0.0000 -0.0000 -1.0000
vt 0.687500 0.000000
vt 0.750000 0.125000
vt 0.625000 0.125000
vt 0.750000 0.250000
vt 0.750000 0.375000
vt 0.625000 0.375000
vt 0.625000 0.250000
vt 0.750000 0.500000
vt 0.625000 0.500000
vt 0.500000 0.375000
vt 0.500000 0.250000
vt 0.500000 0.125000
vt 0.500000 0.500000
vt 0.562500 0.000000
vt 0.375000 0.250000
vt 0.375000 0.125000
vt 0.375000 0.500000
vt 0.375000 0.375000
vt 0.437500 0.000000
vt 0.250000 0.500000
vt 0.250000 0.375000
vt 0.312500 0.000000
vt 0.250000 0.125000
vt 0.250000 0.250000
vt 0.187500 0.000000
vt 0.125000 0.125000
vt 0.125000 0.375000
vt 0.125000 0.250000
vt 0.125000 0.500000
vt 0.000000 0.250000
vt 0.000000 0.125000
vt 0.000000 0.500000
vt 0.000000 0.375000
vt 0.062500 0.000000
vt 1.000000 0.125000
vt 1.000000 0.250000
vt 0.875000 0.250000
vt 0.875000 0.125000
vt 1.000000 0.375000
vt 1.000000 0.500000
vt 0.875000 0.500000
vt 0.875000 0.375000
vt 0.937500 0.000000
vt 0.812500 0.000000
s 0
f 29/1/1 33/2/1 4/3/1
f 32/4/2 31/5/2 2/6/2 3/7/2
f 33/2/3 32/4/3 3/7/3 4/3/3
f 31/5/4 30/8/4 1/9/4 2/6/4
f 3/7/5 2/6/5 6/10/5 7/11/5
f 4/3/6 3/7/6 7/11/6 8/12/6
f 2/6/7 1/9/7 5/13/7 6/10/7
f 29/14/8 4/3/8 8/12/8
f 8/12/9 7/11/9 11/15/9 12/16/9
f 6/10/10 5/13/10 9/17/10 10/18/10
f 29/19/11 8/12/11 12/16/11
f 7/11/12 6/10/12 10/18/12 11/15/12
f 10/18/13 9/17/13 13/20/13 14/21/13
f 29/22/14 12/16/14 16/23/14
f 11/15/15 10/18/15 14/21/15 15/24/15
f 12/16/16 11/15/16 15/24/16 16/23/16
f 29/25/17 16/23/17 20/26/17
f 15/24/18 14/21/18 18/27/18 19/28/18
f 16/23/19 15/24/19 19/28/19 20/26/19
f 14/21/20 13/20/20 17/29/20 18/27/20
f 20/26/21 19/28/21 23/30/21 24/31/21
f 18/27/22 17/29/22 21/32/22 22/33/22
f 29/34/23 20/26/23 24/31/23
f 19/28/24 18/27/24 22/33/24 23/30/24
f 24/35/25 23/36/25 27/37/25 28/38/25
f 22/39/26 21/40/26 25/41/26 26/42/26
f 29/43/27 24/35/27 28/38/27
f 23/36/28 22/39/28 26/42/28 27/37/28
f 29/44/29 28/38/29 33/2/29
f 27/37/30 26/42/30 31/5/30 32/4/30
f 28/38/31 27/37/31 32/4/31 33/2/31
f 26/42/32 25/41/32 30/8/32 31/5/32
f 13/20/33 9/17/33 36/17/33 37/20/33
f 30/8/34 25/41/34 40/41/34 41/8/34
f 5/13/35 1/9/35 34/9/35 35/13/35
f 17/29/36 13/20/36 37/20/36 38/29/36
f 9/17/37 5/13/37 35/13/37 36/17/37
f 1/9/38 30/8/38 41/8/38 34/9/38
f 25/41/39 21/40/39 39/40/39 40/41/39
f 21/32/40 17/29/40 38/29/40 39/32/40
f 36/17/41 35/13/41 43/13/41 44/17/41
f 41/8/42 40/41/42 48/41/42 49/8/42
f 39/32/43 38/29/43 46/29/43 47/32/43
f 37/20/44 36/17/44 44/17/44 45/20/44
f 35/13/45 34/9/45 42/9/45 43/13/45
f 34/9/46 41/8/46 49/8/46 42/9/46
f 40/41/47 39/40/47 47/40/47 48/41/47
f 38/29/48 37/20/48 45/20/48 46/29/48
f 42/9/49 49/8/49 57/8/49 50/9/49
f 48/41/50 47/40/50 55/40/50 56/41/50
f 46/29/51 45/20/51 53/20/51 54/29/51
f 44/17/52 43/13/52 51/13/52 52/17/52
f 49/8/53 48/41/53 56/41/53 57/8/53
f 47/32/54 46/29/54 54/29/54 55/32/54
f 45/20/55 44/17/55 52/17/55 53/20/55
f 43/13/56 42/9/56 50/9/56 51/13/56
f 53/20/57 52/17/57 60/17/57 61/20/57
f 51/13/58 50/9/58 58/9/58 59/13/58
f 50/9/59 57/8/59 65/8/59 58/9/59
f 56/41/60 55/40/60 63/40/60 64/41/60
f 54/29/61 53/20/61 61/20/61 62/29/61
f 52/17/62 51/13/62 59/13/62 60/17/62
f 57/8/63 56/41/63 64/41/63 65/8/63
f 55/32/64 54/29/64 62/29/64 63/32/64
f 65/8/65 64/41/65 72/41/65 73/8/65
f 63/32/66 62/29/66 70/29/66 71/32/66
f 61/20/67 60/17/67 68/17/67 69/20/67
f 59/13/68 58/9/68 66/9/68 67/13/68
f 58/9/69 65/8/69 73/8/69 66/9/69
f 64/41/70 63/40/70 71/40/70 72/41/70
f 62/29/71 61/20/71 69/20/71 70/29/71
f 60/17/72 59/13/72 67/13/72 68/17/72
f 70/29/73 69/20/73 77/20/73 78/29/73
f 68/17/74 67/13/74 75/13/74 76/17/74
f 73/8/75 72/41/75 80/41/75 81/8/75
f 71/32/76 70/29/76 78/29/76 79/32/76
f 69/20/77 68/17/77 76/17/77 77/20/77
f 67/13/78 66/9/78 74/9/78 75/13/78
f 66/9/79 73/8/79 81/8/79 74/9/79
f 72/41/80 71/40/80 79/40/80 80/41/80
f 74/9/81 81/8/81 89/8/81 82/9/81
f 80/41/82 79/40/82 87/40/82 88/41/82
f 78/29/83 77/20/83 85/20/83 86/29/83
f 76/17/84 75/13/84 83/13/84 84/17/84
f 81/8/85 80/41/85 88/41/85 89/8/85
f 79/32/86 78/29/86 86/29/86 87/32/86
f 77/20/87 76/17/87 84/17/87 85/20/87
f 75/13/88 74/9/88 82/9/88 83/13/88
f 83/13/89 82/9/89 89/8/89 88/41/89 87/32/89 86/29/89 85/20/89 84/17/89
