# Blender 3.6.1
# www.blender.org
mtllib msx.mtl
o MSX
v -0.042440 0.000000 -0.453618
v -0.007443 0.000000 -0.458142
v -0.007443 1.500000 -0.458142
v -0.042440 1.500000 -0.453618
v -0.075136 1.500000 -0.440341
v -0.075136 0.000000 -0.440341
v -0.103380 1.500000 -0.419185
v -0.103380 0.000000 -0.419185
v -0.125315 0.000000 -0.391542
v -0.125315 1.500000 -0.391542
v -0.139498 0.000000 -0.359229
v -0.139498 1.500000 -0.359229
v -0.144997 0.000000 -0.324372
v -0.144997 1.500000 -0.324372
v -0.141450 1.500000 -0.289262
v -0.141450 0.000000 -0.289262
v -0.129090 0.000000 -0.256208
v -0.129090 1.500000 -0.256208
v -0.108729 0.000000 -0.227386
v -0.108729 1.500000 -0.227386
v -0.081708 1.500000 -0.204689
v -0.081708 0.000000 -0.204689
v -0.049803 0.000000 -0.189610
v -0.049803 1.500000 -0.189610
v -0.015112 1.500000 -0.183142
v -0.015112 0.000000 -0.183142
v 0.579656 1.500000 -0.183142
v 0.579656 0.000000 -0.183142
v 0.710670 1.500000 1.481547
v 0.579656 1.500000 1.491858
v 0.579656 0.000000 1.491858
v 0.838457 1.500000 1.450868
v 0.710670 0.000000 1.481547
v 0.959873 1.500000 1.400576
v 0.838457 0.000000 1.450868
v 0.959873 0.000000 1.400576
v 1.071926 1.500000 1.331909
v 1.071926 0.000000 1.331909
v 1.171858 1.500000 1.246560
v 1.171858 0.000000 1.246560
v 1.257207 1.500000 1.146628
v 1.257207 0.000000 1.146628
v 1.325874 1.500000 1.034575
v 1.325874 0.000000 1.034575
v 1.376166 1.500000 0.913159
v 1.376166 0.000000 0.913159
v 1.406845 1.500000 0.785371
v 1.406845 0.000000 0.785371
v 1.417156 1.500000 0.654358
v 1.417156 0.000000 0.654358
v 1.406845 1.500000 0.523344
v 1.406845 0.000000 0.523344
v 1.376166 1.500000 0.395556
v 1.376166 0.000000 0.395556
v 1.325874 1.500000 0.274141
v 1.325874 0.000000 0.274141
v 1.257207 0.000000 0.162087
v 1.257207 1.500000 0.162087
v 1.171858 0.000000 0.062156
v 1.171858 1.500000 0.062156
v 1.071926 1.500000 -0.023194
v 1.071926 0.000000 -0.023194
v 0.959873 0.000000 -0.091860
v 0.959873 1.500000 -0.091860
v 0.838457 0.000000 -0.142152
v 0.838457 1.500000 -0.142152
v 0.710669 0.000000 -0.172831
v 0.710669 1.500000 -0.172831
v -1.336306 1.500000 1.491858
v -1.336306 0.000000 1.491858
v -1.616582 1.500000 0.473102
v -1.616582 0.000000 0.473102
v -1.912074 1.500000 1.514979
v -1.912074 0.000000 1.514979
v -2.606045 1.500000 1.514979
v -2.606045 0.000000 1.514979
v -2.895058 1.500000 0.464465
v -2.895058 0.000000 0.464465
v -3.192999 1.500000 1.514979
v -3.192999 0.000000 1.514979
v -3.929604 1.500000 1.514979
v -3.929604 0.000000 1.514979
v -3.178025 1.500000 -1.135021
v -3.178025 0.000000 -1.135021
v -2.560316 1.500000 -1.135021
v -2.560316 0.000000 -1.135021
v -2.256094 0.000000 -0.029225
v -2.256094 1.500000 -0.029225
v -1.942473 1.500000 -1.135021
v -1.942473 0.000000 -1.135021
v -1.323680 1.500000 -1.135021
v -1.323680 0.000000 -1.135021
v -0.793564 0.000000 0.791858
v -0.793564 1.500000 0.791858
v 0.579656 0.000000 0.791858
v 0.579656 1.500000 0.791858
v 0.615243 0.000000 0.787172
v 0.615243 1.500000 0.787172
v 0.648406 0.000000 0.773436
v 0.648406 1.500000 0.773436
v 0.676883 0.000000 0.751585
v 0.676883 1.500000 0.751585
v 0.698734 0.000000 0.723108
v 0.698734 1.500000 0.723108
v 0.712470 0.000000 0.689945
v 0.712470 1.500000 0.689945
v 0.717156 1.500000 0.654358
v 0.717156 0.000000 0.654358
v 0.712470 0.000000 0.618770
v 0.712470 1.500000 0.618770
v 0.698734 1.500000 0.585608
v 0.698734 0.000000 0.585608
v 0.676883 0.000000 0.557131
v 0.676883 1.500000 0.557131
v 0.648406 0.000000 0.535279
v 0.648406 1.500000 0.535279
v 0.615243 0.000000 0.521543
v 0.615243 1.500000 0.521543
v 0.579656 1.500000 0.516858
v 0.579656 0.000000 0.516858
v -0.007443 0.000000 0.516858
v -0.007443 1.500000 0.516858
v -0.138457 1.500000 -1.147831
v -0.007443 1.500000 -1.158142
v -0.007443 0.000000 -1.158142
v -0.138457 0.000000 -1.147831
v -0.266245 1.500000 -1.117152
v -0.266245 0.000000 -1.117152
v -0.387660 1.500000 -1.066861
v -0.387660 0.000000 -1.066861
v -0.499714 1.500000 -0.998194
v -0.499714 0.000000 -0.998194
v -0.599645 1.500000 -0.912844
v -0.599645 0.000000 -0.912844
v -0.684995 1.500000 -0.812913
v -0.753662 1.500000 -0.700860
v -0.684995 0.000000 -0.812913
v -0.753662 0.000000 -0.700860
v -0.803953 1.500000 -0.579444
v -0.803953 0.000000 -0.579444
v -0.834633 1.500000 -0.451656
v -0.834633 0.000000 -0.451656
v -0.844944 1.500000 -0.320642
v -0.844944 0.000000 -0.320642
v -0.834633 1.500000 -0.189628
v -0.834633 0.000000 -0.189628
v -0.803953 1.500000 -0.061841
v -0.803953 0.000000 -0.061841
v -0.753662 1.500000 0.059575
v -0.684995 1.500000 0.171628
v -0.753662 0.000000 0.059575
v -0.684995 0.000000 0.171628
v -0.599645 0.000000 0.271560
v -0.599645 1.500000 0.271560
v -0.499714 1.500000 0.356910
v -0.499714 0.000000 0.356910
v -0.387660 1.500000 0.425576
v -0.387660 0.000000 0.425576
v -0.266245 0.000000 0.475868
v -0.266245 1.500000 0.475868
v -0.138457 1.500000 0.506547
v -0.138457 0.000000 0.506547
v 2.137563 0.000000 -1.158142
v 2.137563 1.500000 -1.158142
v 2.576766 1.500000 -0.519310
v 2.576766 0.000000 -0.519310
v 3.025387 1.500000 -1.152059
v 3.025387 0.000000 -1.152059
v 3.883476 1.500000 -1.152059
v 3.883476 0.000000 -1.152059
v 2.988583 1.500000 0.110125
v 2.988583 0.000000 0.110125
v 3.942721 1.500000 1.497941
v 3.942721 0.000000 1.497941
v 3.093245 1.500000 1.497941
v 3.093245 0.000000 1.497941
v 2.573669 1.500000 0.742204
v 2.573669 0.000000 0.742204
v 2.042163 1.500000 1.491858
v 2.042163 0.000000 1.491858
v 1.184075 1.500000 1.491858
v 1.184075 0.000000 1.491858
v 2.161852 1.500000 0.112770
v 2.161852 0.000000 0.112770
v 1.769344 1.500000 -0.458142
v 1.769344 0.000000 -0.458142
v 0.006558 0.000000 0.178418
v 0.006558 1.500000 0.178418
vn 0.1282 -0.0000 0.9917
vn 0.3762 -0.0000 0.9265
vn 0.5995 -0.0000 0.8004
vn 0.7833 -0.0000 0.6216
vn 0.9157 -0.0000 0.4019
vn 0.9878 -0.0000 0.1558
vn 0.9949 -0.0000 -0.1005
vn 0.9367 -0.0000 -0.3503
vn 0.8168 -0.0000 -0.5770
vn 0.6432 -0.0000 -0.7657
vn 0.4273 -0.0000 -0.9041
vn 0.1833 -0.0000 -0.9831
vn -0.0000 -0.0000 -1.0000
vn 0.0785 -0.0000 0.9969
vn 0.2334 -0.0000 0.9724
vn 0.3827 -0.0000 0.9239
vn 0.5225 -0.0000 0.8526
vn 0.6494 -0.0000 0.7604
vn 0.7604 -0.0000 0.6494
vn 0.8526 -0.0000 0.5225
vn 0.9239 -0.0000 0.3827
vn 0.9724 -0.0000 0.2334
vn 0.9969 -0.0000 0.0785
vn 0.9969 -0.0000 -0.0785
vn 0.9724 -0.0000 -0.2334
vn 0.9239 -0.0000 -0.3827
vn 0.8526 -0.0000 -0.5225
vn 0.7604 -0.0000 -0.6494
vn 0.6494 -0.0000 -0.7604
vn 0.5225 -0.0000 -0.8526
vn 0.3827 -0.0000 -0.9239
vn 0.2334 -0.0000 -0.9724
vn 0.0785 -0.0000 -0.9969
vn -0.0000 -0.0000 1.0000
vn -0.9642 -0.0000 0.2653
vn 0.9621 -0.0000 0.2729
vn -0.9621 -0.0000 -0.2729
vn 0.9642 -0.0000 -0.2653
vn -0.1305 -0.0000 -0.9914
vn -0.3827 -0.0000 -0.9239
vn -0.6088 -0.0000 -0.7934
vn -0.7934 -0.0000 -0.6088
vn -0.9239 -0.0000 -0.3827
vn -0.9914 -0.0000 -0.1305
vn -0.9914 -0.0000 0.1305
vn -0.9239 -0.0000 0.3827
vn -0.7934 -0.0000 0.6088
vn -0.6088 -0.0000 0.7934
vn -0.3827 -0.0000 0.9239
vn -0.1305 -0.0000 0.9914
vn -0.0785 -0.0000 -0.9969
vn -0.2334 -0.0000 -0.9724
vn -0.5225 -0.0000 -0.8526
vn -0.6494 -0.0000 -0.7604
vn -0.7604 -0.0000 -0.6494
vn -0.8526 -0.0000 -0.5225
vn -0.9724 -0.0000 -0.2334
vn -0.9969 -0.0000 -0.0785
vn -0.9969 -0.0000 0.0785
vn -0.9724 -0.0000 0.2334
vn -0.8526 -0.0000 0.5225
vn -0.7604 -0.0000 0.6494
vn -0.6494 -0.0000 0.7604
vn -0.5225 -0.0000 0.8526
vn -0.2334 -0.0000 0.9724
vn -0.0785 -0.0000 0.9969
vn 0.8240 -0.0000 -0.5665
vn -0.8158 -0.0000 -0.5784
vn 0.8158 -0.0000 0.5784
vn -0.8240 -0.0000 0.5665
vn -0.0000 -1.0000 -0.0000
vn -0.0000 1.0000 -0.0000
s 0
f 1//1 2//1 3//1
f 1//1 3//1 4//1
f 1//2 4//2 5//2
f 6//3 5//3 7//3
f 6//2 1//2 5//2
f 8//3 6//3 7//3
f 9//4 7//4 10//4
f 9//4 8//4 7//4
f 11//5 10//5 12//5
f 11//5 9//5 10//5
f 13//6 12//6 14//6
f 13//7 14//7 15//7
f 13//6 11//6 12//6
f 16//7 13//7 15//7
f 17//8 15//8 18//8
f 17//8 16//8 15//8
f 19//9 18//9 20//9
f 19//10 20//10 21//10
f 19//9 17//9 18//9
f 22//10 19//10 21//10
f 23//11 21//11 24//11
f 23//12 24//12 25//12
f 23//11 22//11 21//11
f 26//12 23//12 25//12
f 27//13 28//13 26//13
f 25//13 27//13 26//13
f 29//14 30//14 31//14
f 32//15 29//15 33//15
f 29//14 31//14 33//14
f 34//16 32//16 35//16
f 32//15 33//15 35//15
f 34//16 35//16 36//16
f 37//17 34//17 38//17
f 34//17 36//17 38//17
f 39//18 37//18 40//18
f 37//18 38//18 40//18
f 41//19 39//19 42//19
f 39//19 40//19 42//19
f 43//20 41//20 44//20
f 45//21 43//21 44//21
f 41//20 42//20 44//20
f 45//21 44//21 46//21
f 47//22 45//22 48//22
f 45//22 46//22 48//22
f 49//23 47//23 50//23
f 51//24 49//24 50//24
f 47//23 48//23 50//23
f 51//24 50//24 52//24
f 53//25 51//25 54//25
f 51//25 52//25 54//25
f 55//26 53//26 56//26
f 53//26 54//26 56//26
f 55//27 56//27 57//27
f 58//27 55//27 57//27
f 58//28 57//28 59//28
f 60//28 58//28 59//28
f 61//29 60//29 59//29
f 61//29 59//29 62//29
f 61//30 62//30 63//30
f 64//30 61//30 63//30
f 64//31 63//31 65//31
f 66//31 64//31 65//31
f 66//32 65//32 67//32
f 68//32 66//32 67//32
f 27//33 68//33 67//33
f 27//33 67//33 28//33
f 69//34 70//34 31//34
f 30//34 69//34 31//34
f 69//35 71//35 72//35
f 69//35 72//35 70//35
f 73//36 74//36 72//36
f 71//36 73//36 72//36
f 75//34 76//34 74//34
f 73//34 75//34 74//34
f 75//35 77//35 78//35
f 75//35 78//35 76//35
f 79//36 80//36 78//36
f 77//36 79//36 78//36
f 79//34 81//34 82//34
f 79//34 82//34 80//34
f 83//37 82//37 81//37
f 84//37 82//37 83//37
f 84//13 83//13 85//13
f 86//13 84//13 85//13
f 87//38 86//38 85//38
f 87//38 85//38 88//38
f 87//37 88//37 89//37
f 90//37 87//37 89//37
f 90//13 89//13 91//13
f 92//13 90//13 91//13
f 93//38 92//38 91//38
f 93//38 91//38 94//38
f 95//13 93//13 94//13
f 95//13 94//13 96//13
f 97//39 95//39 96//39
f 97//39 96//39 98//39
f 99//40 98//40 100//40
f 99//40 97//40 98//40
f 101//41 100//41 102//41
f 101//41 99//41 100//41
f 103//42 102//42 104//42
f 103//42 101//42 102//42
f 105//43 104//43 106//43
f 105//44 106//44 107//44
f 105//43 103//43 104//43
f 108//44 105//44 107//44
f 109//45 107//45 110//45
f 109//46 110//46 111//46
f 109//45 108//45 107//45
f 112//46 109//46 111//46
f 113//47 111//47 114//47
f 113//47 112//47 111//47
f 115//48 114//48 116//48
f 115//48 113//48 114//48
f 117//49 116//49 118//49
f 117//50 118//50 119//50
f 117//49 115//49 116//49
f 120//50 117//50 119//50
f 121//34 120//34 119//34
f 121//34 119//34 122//34
f 123//51 124//51 125//51
f 123//51 125//51 126//51
f 127//52 123//52 128//52
f 123//52 126//52 128//52
f 129//40 127//40 130//40
f 127//40 128//40 130//40
f 131//53 129//53 132//53
f 129//53 130//53 132//53
f 133//54 131//54 134//54
f 135//55 133//55 134//55
f 131//54 132//54 134//54
f 136//56 135//56 137//56
f 135//55 134//55 137//55
f 136//56 137//56 138//56
f 139//43 136//43 140//43
f 136//43 138//43 140//43
f 141//57 139//57 142//57
f 143//58 141//58 142//58
f 139//57 140//57 142//57
f 143//58 142//58 144//58
f 145//59 143//59 146//59
f 143//59 144//59 146//59
f 147//60 145//60 148//60
f 149//46 147//46 148//46
f 145//60 146//60 148//60
f 150//61 149//61 151//61
f 149//46 148//46 151//46
f 150//61 151//61 152//61
f 150//62 152//62 153//62
f 154//62 150//62 153//62
f 155//63 154//63 153//63
f 155//63 153//63 156//63
f 157//64 155//64 156//64
f 157//64 156//64 158//64
f 157//49 158//49 159//49
f 160//49 157//49 159//49
f 161//65 160//65 159//65
f 161//65 159//65 162//65
f 161//66 162//66 121//66
f 122//66 161//66 121//66
f 163//13 125//13 124//13
f 163//13 124//13 164//13
f 163//67 164//67 165//67
f 166//67 163//67 165//67
f 165//68 167//68 168//68
f 165//68 168//68 166//68
f 169//13 170//13 168//13
f 167//13 169//13 168//13
f 171//69 172//69 170//69
f 169//69 171//69 170//69
f 173//67 174//67 172//67
f 171//67 173//67 172//67
f 175//34 176//34 174//34
f 173//34 175//34 174//34
f 177//70 178//70 176//70
f 175//70 177//70 176//70
f 179//69 180//69 178//69
f 177//69 179//69 178//69
f 181//34 182//34 180//34
f 179//34 181//34 180//34
f 183//68 184//68 182//68
f 181//68 183//68 182//68
f 185//70 186//70 184//70
f 183//70 185//70 184//70
f 3//34 2//34 186//34
f 185//34 3//34 186//34
f 97//71 99//71 35//71
f 108//71 50//71 48//71
f 108//71 52//71 50//71
f 108//71 48//71 105//71
f 90//71 92//71 87//71
f 95//71 33//71 31//71
f 172//71 174//71 176//71
f 95//71 97//71 33//71
f 172//71 176//71 178//71
f 109//71 54//71 52//71
f 84//71 87//71 78//71
f 109//71 52//71 108//71
f 84//71 86//71 87//71
f 84//71 78//71 82//71
f 152//71 17//71 19//71
f 186//71 166//71 184//71
f 92//71 93//71 72//71
f 92//71 72//71 87//71
f 152//71 19//71 153//71
f 93//71 95//71 31//71
f 182//71 184//71 180//71
f 180//71 184//71 178//71
f 186//71 2//71 125//71
f 112//71 56//71 54//71
f 187//71 156//71 19//71
f 112//71 57//71 56//71
f 187//71 19//71 22//71
f 112//71 54//71 109//71
f 187//71 22//71 23//71
f 187//71 23//71 26//71
f 187//71 26//71 28//71
f 187//71 120//71 121//71
f 187//71 158//71 156//71
f 187//71 159//71 158//71
f 187//71 162//71 159//71
f 187//71 121//71 162//71
f 187//71 28//71 120//71
f 113//71 57//71 112//71
f 59//71 57//71 113//71
f 151//71 17//71 152//71
f 148//71 16//71 17//71
f 148//71 17//71 151//71
f 146//71 13//71 16//71
f 62//71 113//71 115//71
f 184//71 172//71 178//71
f 146//71 16//71 148//71
f 62//71 59//71 113//71
f 163//71 166//71 186//71
f 63//71 62//71 115//71
f 63//71 115//71 117//71
f 72//71 93//71 70//71
f 65//71 63//71 117//71
f 67//71 117//71 120//71
f 125//71 163//71 186//71
f 67//71 65//71 117//71
f 144//71 13//71 146//71
f 126//71 2//71 1//71
f 166//71 172//71 184//71
f 126//71 125//71 2//71
f 28//71 67//71 120//71
f 142//71 11//71 13//71
f 168//71 172//71 166//71
f 142//71 13//71 144//71
f 168//71 170//71 172//71
f 128//71 1//71 6//71
f 128//71 126//71 1//71
f 93//71 31//71 70//71
f 140//71 11//71 142//71
f 130//71 128//71 6//71
f 138//71 9//71 11//71
f 101//71 40//71 38//71
f 101//71 42//71 40//71
f 138//71 11//71 140//71
f 132//71 6//71 8//71
f 132//71 130//71 6//71
f 137//71 8//71 9//71
f 103//71 44//71 42//71
f 137//71 9//71 138//71
f 103//71 42//71 101//71
f 134//71 132//71 8//71
f 134//71 8//71 137//71
f 99//71 36//71 35//71
f 99//71 38//71 36//71
f 99//71 101//71 38//71
f 19//71 156//71 153//71
f 105//71 46//71 44//71
f 105//71 48//71 46//71
f 78//71 72//71 74//71
f 78//71 74//71 76//71
f 78//71 80//71 82//71
f 105//71 44//71 103//71
f 78//71 87//71 72//71
f 97//71 35//71 33//71
f 32//72 100//72 98//72
f 47//72 49//72 107//72
f 49//72 51//72 107//72
f 106//72 47//72 107//72
f 88//72 91//72 89//72
f 30//72 29//72 96//72
f 175//72 173//72 171//72
f 29//72 98//72 96//72
f 177//72 175//72 171//72
f 51//72 53//72 110//72
f 77//72 88//72 83//72
f 107//72 51//72 110//72
f 88//72 85//72 83//72
f 81//72 77//72 83//72
f 20//72 18//72 150//72
f 183//72 165//72 185//72
f 71//72 94//72 91//72
f 88//72 71//72 91//72
f 154//72 20//72 150//72
f 30//72 96//72 94//72
f 179//72 183//72 181//72
f 177//72 183//72 179//72
f 124//72 3//72 185//72
f 53//72 55//72 111//72
f 20//72 155//72 188//72
f 55//72 58//72 111//72
f 21//72 20//72 188//72
f 110//72 53//72 111//72
f 24//72 21//72 188//72
f 25//72 24//72 188//72
f 27//72 25//72 188//72
f 122//72 119//72 188//72
f 155//72 157//72 188//72
f 157//72 160//72 188//72
f 160//72 161//72 188//72
f 161//72 122//72 188//72
f 119//72 27//72 188//72
f 111//72 58//72 114//72
f 114//72 58//72 60//72
f 150//72 18//72 149//72
f 18//72 15//72 147//72
f 149//72 18//72 147//72
f 15//72 14//72 145//72
f 116//72 114//72 61//72
f 177//72 171//72 183//72
f 147//72 15//72 145//72
f 114//72 60//72 61//72
f 185//72 165//72 164//72
f 116//72 61//72 64//72
f 118//72 116//72 64//72
f 69//72 94//72 71//72
f 118//72 64//72 66//72
f 119//72 118//72 68//72
f 185//72 164//72 124//72
f 118//72 66//72 68//72
f 145//72 14//72 143//72
f 4//72 3//72 123//72
f 183//72 171//72 165//72
f 3//72 124//72 123//72
f 119//72 68//72 27//72
f 14//72 12//72 141//72
f 165//72 171//72 167//72
f 143//72 14//72 141//72
f 171//72 169//72 167//72
f 5//72 4//72 127//72
f 4//72 123//72 127//72
f 69//72 30//72 94//72
f 141//72 12//72 139//72
f 5//72 127//72 129//72
f 12//72 10//72 136//72
f 37//72 39//72 102//72
f 39//72 41//72 102//72
f 139//72 12//72 136//72
f 7//72 5//72 131//72
f 5//72 129//72 131//72
f 10//72 7//72 135//72
f 41//72 43//72 104//72
f 136//72 10//72 135//72
f 102//72 41//72 104//72
f 7//72 131//72 133//72
f 135//72 7//72 133//72
f 32//72 34//72 100//72
f 34//72 37//72 100//72
f 37//72 102//72 100//72
f 154//72 155//72 20//72
f 43//72 45//72 106//72
f 45//72 47//72 106//72
f 73//72 71//72 77//72
f 75//72 73//72 77//72
f 81//72 79//72 77//72
f 104//72 43//72 106//72
f 71//72 88//72 77//72
f 29//72 32//72 98//72
